<?xml version="1.0" encoding="UTF-8" standalone="no"?>
<svg
   viewBox="0 0 840 240"
   width="840"
   height="240"
   style="width: 100%; height: 100%;"
   preserveAspectRatio="xMidYMid meet"
   version="1.1"
   id="svg125"
   sodipodi:docname="campine.svg"
   inkscape:version="1.2 (dc2aedaf03, 2022-05-15)"
   xmlns:inkscape="http://www.inkscape.org/namespaces/inkscape"
   xmlns:sodipodi="http://sodipodi.sourceforge.net/DTD/sodipodi-0.dtd"
   xmlns="http://www.w3.org/2000/svg"
   xmlns:svg="http://www.w3.org/2000/svg">
  <sodipodi:namedview
     id="namedview127"
     pagecolor="#505050"
     bordercolor="#eeeeee"
     borderopacity="1"
     inkscape:showpageshadow="0"
     inkscape:pageopacity="0"
     inkscape:pagecheckerboard="0"
     inkscape:deskcolor="#505050"
     showgrid="false"
     inkscape:zoom="1.6154762"
     inkscape:cx="316.62491"
     inkscape:cy="120.08843"
     inkscape:window-width="1920"
     inkscape:window-height="1011"
     inkscape:window-x="0"
     inkscape:window-y="0"
     inkscape:window-maximized="1"
     inkscape:current-layer="svg125" />
  <defs
     id="defs41">
    <clipPath
       id="animationMask_2oE5VMj6oT">
      <rect
         width="840"
         height="240"
         x="0"
         y="0"
         id="rect2" />
    </clipPath>
    <clipPath
       id="cp_B9m6ed3H">
      <path
         d="M0,0 L900,0 L900,300 L0,300z"
         id="path5" />
    </clipPath>
    <clipPath
       id="cp_gCsCGusH">
      <path
         d="M0,0 L900,0 L900,300 L0,300z"
         id="path8" />
    </clipPath>
    <clipPath
       id="NjgJrzxI7b">
      <path
         fill="#ffffff"
         clip-rule="nonzero"
         d=" M65.649,27.336 C65.649,27.336 72.329,-3.346 72.329,-3.346 C72.329,-3.346 70.32,-6.905 70.32,-6.905 C70.32,-6.905 72.561,-8.687 72.561,-8.687 C72.561,-8.687 69.368,-10.755 69.368,-10.755 C69.368,-10.755 68.541,-9.394 68.541,-9.394 C68.541,-9.394 69.45379999999999,-0.769 69.45379999999999,-0.769 C69.45379999999999,-0.769 62.31634999999994,26.24379999999999 62.31634999999994,26.24379999999999 C62.31634999999994,26.24379999999999 65.649,27.336 65.649,27.336"
         fill-opacity="1"
         id="path11" />
    </clipPath>
    <clipPath
       id="HbH49lCwHK">
      <path
         fill="#ffffff"
         clip-rule="nonzero"
         d=" M42.178,34.231 C42.178,34.231 75.861,46.81 75.861,46.81 C75.861,46.81 112.06,32.974 112.06,32.974 C112.06,32.974 103.95,-11.905 103.95,-11.905 C103.95,-11.905 63.371,6.958 63.371,6.958 C63.371,6.958 42.178,34.231 42.178,34.231"
         fill-opacity="1"
         id="path14" />
    </clipPath>
    <clipPath
       id="pLekAVHA3x">
      <path
         fill="#ffffff"
         clip-rule="nonzero"
         d=" M107.634,14.166 C107.634,14.166 78.938,-2.75 78.938,-2.75 C78.938,-2.75 24.894,-0.147 24.894,-0.147 C24.894,-0.147 -10.578,23.468 -10.578,23.468 C-10.578,23.468 -2.94,107.625 -2.94,107.625 C-2.94,107.625 47.2,137.587 47.2,137.587 C47.2,137.587 102.534,119.898 102.534,119.898 C102.534,119.898 93.139,85.671 93.139,85.671 C93.139,85.671 62.695,85.047 62.695,85.047 C62.695,85.047 70.45,83.114 70.45,83.114 C70.45,83.114 90.26,80.199 90.26,80.199 C90.26,80.199 110.217,57.555 110.217,57.555 C110.217,57.555 107.634,14.166 107.634,14.166"
         fill-opacity="1"
         id="path17" />
    </clipPath>
    <clipPath
       id="cp_uDoIhMAS">
      <path
         d="M0,0 L900,0 L900,300 L0,300z"
         id="path20" />
    </clipPath>
    <clipPath
       id="TVs5hXRQJy">
      <path
         fill="#ffffff"
         clip-rule="nonzero"
         d=" M0,0 C0,0 0,300 0,300 C0,300 847,300 847,300 C847,300 847,0 847,0 C847,0 0,0 0,0"
         fill-opacity="1"
         id="path23" />
    </clipPath>
    <clipPath
       id="gUSfMqoO73">
      <path
         fill="#ffffff"
         clip-rule="nonzero"
         d=" M111.166,32.162 C111.166,32.162 120.326,66.749 120.326,66.749 C120.326,66.749 144.73,61.978 144.73,61.978 C144.73,61.978 153.7,35.215 153.7,35.215 C153.7,35.215 111.166,32.162 111.166,32.162"
         fill-opacity="1"
         id="path26" />
    </clipPath>
    <clipPath
       id="yJszFUqnsC">
      <path
         fill="#ffffff"
         clip-rule="nonzero"
         d=" M103.914,71.857 C103.914,71.857 107.54,122.856 107.54,122.856 C107.54,122.856 175.646,121.902 175.646,121.902 C175.646,121.902 175.265,37.887 175.265,37.887 C175.265,37.887 150.747,33.498 150.747,33.498 C150.747,33.498 140.337,62.585 140.337,62.585 C140.337,62.585 103.914,71.857 103.914,71.857"
         fill-opacity="1"
         id="path29" />
    </clipPath>
    <clipPath
       id="iZf4ItUAP6">
      <path
         fill="#ffffff"
         clip-rule="nonzero"
         d=" M318.54,38.084 C318.54,38.084 318.54,153 318.54,153 C318.54,153 397.614,153 397.614,153 C397.614,153 397.614,38.084 397.614,38.084 C397.614,38.084 318.54,38.084 318.54,38.084"
         fill-opacity="1"
         id="path32" />
    </clipPath>
    <clipPath
       id="NCXYUHCiuI">
      <path
         fill="#ffffff"
         clip-rule="nonzero"
         d=" M559.213,90.565 C559.213,90.565 545.282,126.681 545.282,126.681 C545.282,126.681 601.017,126.108 601.017,126.108 C601.017,126.108 592.81,93.428 592.81,93.428 C592.81,93.428 559.213,90.565 559.213,90.565"
         fill-opacity="1"
         id="path35" />
    </clipPath>
    <clipPath
       id="7zRm1ad2ch">
      <path
         fill="#ffffff"
         clip-rule="nonzero"
         d=" M526.198,38.084 C526.198,38.084 526.198,121.91 526.198,121.91 C526.198,121.91 547.486,124.582 547.486,124.582 C547.486,124.582 561.036,92.924 561.036,92.924 C561.036,92.924 599.967,90.252 599.967,90.252 C599.967,90.252 599.967,38.084 599.967,38.084 C599.967,38.084 526.198,38.084 526.198,38.084"
         fill-opacity="1"
         id="path38" />
    </clipPath>
  </defs>
  <g
     clip-path="url(#animationMask_2oE5VMj6oT)"
     id="g123"
     style="fill:#659975;fill-opacity:1">
    <g
       clip-path="url(#cp_B9m6ed3H)"
       style="display:block;fill:#659975;fill-opacity:1"
       transform="matrix(1,0,0,1,-30,-30)"
       opacity="1"
       id="g121">
      <g
         clip-path="url(#cp_uDoIhMAS)"
         transform="matrix(1,0,0,1,0,0)"
         opacity="1"
         id="g99"
         style="fill:#659975;fill-opacity:1">
        <g
           clip-path="url(#TVs5hXRQJy)"
           style="display:block;fill:#659975;fill-opacity:1"
           id="g97">
          <g
             style="user-select:none;display:block;fill:#659975;fill-opacity:1"
             clip-path="url(#7zRm1ad2ch)"
             transform="matrix(1.31,0,0,1.31,57.022,49.27)"
             opacity="1"
             id="g47">
            <g
               opacity="1"
               transform="matrix(1,0,0,1,563.082,79.997)"
               id="g45"
               style="fill:#659975;fill-opacity:1">
              <path
                 style="display:block;fill:#659975;fill-opacity:1"
                 fill="rgb(254,254,255)"
                 fill-opacity="1"
                 d="M0 0 M5.58,41.913 C-7.223000000000001,41.913 -17.958,38.067 -25.461,30.79 C-32.934,23.546 -36.885,13.214 -36.885,0.912 C-36.885,-24.703 -21.143,-41.913 2.287,-41.913 C15.207999999999998,-41.913 36.885,-37.014 36.885,-4.207 C36.885,-4.207 36.885,4.5 36.885,4.5 C36.885,4.96 36.51,5.334 36.049,5.334 C36.049,5.334 -16.185,5.334 -16.185,5.334 C-16.57,5.334 -16.884,5.648 -16.884,6.034 C-16.884,6.034 -16.884,6.4 -16.884,6.4 C-15.116,18.83 -2.8629999999999995,24.472 7.773,24.472 C15.918,24.472 22.839000000000002,23.070999999999998 29.556,20.06 C29.672,20.008 29.794,19.982 29.918,19.982 C30.303,19.982 30.635,20.241 30.727,20.61 C30.727,20.61 34.076,34.229 34.076,34.229 C34.161,34.585 34.026,34.951 33.737,35.137 C27.032000000000004,39.506 17.032,41.913 5.58,41.913zM0 0 M1.737,-25.208 C-7.811,-25.208 -14.527999999999999,-18.667 -16.691,-7.263 C-16.72,-7.083 -16.654,-6.826 -16.547,-6.693 C-16.400000000000002,-6.5249999999999995 -16.205000000000002,-6.433 -16.001,-6.433 C-16.001,-6.433 17.1,-6.433 17.1,-6.433 C17.263,-6.433 17.489,-6.528 17.602,-6.645 C17.734,-6.784 17.805,-6.97 17.798,-7.157 C17.590999999999998,-18.627000000000002 11.737,-25.208 1.737,-25.208z"
                 id="path43" />
            </g>
          </g>
          <g
             style="user-select:none;display:block;fill:#659975;fill-opacity:1"
             clip-path="url(#NCXYUHCiuI)"
             transform="matrix(1.31,0,0,1.31,57.022,49.27)"
             opacity="1"
             id="g53">
            <g
               opacity="1"
               transform="matrix(1,0,0,1,563.082,79.997)"
               id="g51"
               style="fill:#659975;fill-opacity:1">
              <path
                 style="display:block;fill:#659975;fill-opacity:1"
                 fill="rgb(254,254,255)"
                 fill-opacity="1"
                 d="M0 0 M5.58,41.913 C-7.223000000000001,41.913 -17.958,38.067 -25.461,30.79 C-32.934,23.546 -36.885,13.214 -36.885,0.912 C-36.885,-24.703 -21.143,-41.913 2.287,-41.913 C15.207999999999998,-41.913 36.885,-37.014 36.885,-4.207 C36.885,-4.207 36.885,4.5 36.885,4.5 C36.885,4.96 36.51,5.334 36.049,5.334 C36.049,5.334 -16.185,5.334 -16.185,5.334 C-16.57,5.334 -16.884,5.648 -16.884,6.034 C-16.884,6.034 -16.884,6.4 -16.884,6.4 C-15.116,18.83 -2.8629999999999995,24.472 7.773,24.472 C15.918,24.472 22.839000000000002,23.070999999999998 29.556,20.06 C29.672,20.008 29.794,19.982 29.918,19.982 C30.303,19.982 30.635,20.241 30.727,20.61 C30.727,20.61 34.076,34.229 34.076,34.229 C34.161,34.585 34.026,34.951 33.737,35.137 C27.032000000000004,39.506 17.032,41.913 5.58,41.913zM0 0 M1.737,-25.208 C-7.811,-25.208 -14.527999999999999,-18.667 -16.691,-7.263 C-16.72,-7.083 -16.654,-6.826 -16.547,-6.693 C-16.400000000000002,-6.5249999999999995 -16.205000000000002,-6.433 -16.001,-6.433 C-16.001,-6.433 17.1,-6.433 17.1,-6.433 C17.263,-6.433 17.489,-6.528 17.602,-6.645 C17.734,-6.784 17.805,-6.97 17.798,-7.157 C17.590999999999998,-18.627000000000002 11.737,-25.208 1.737,-25.208z"
                 id="path49" />
            </g>
          </g>
          <g
             style="user-select:none;display:block;fill:#659975;fill-opacity:1"
             transform="matrix(1.31,0,0,1.31,57.022,49.27)"
             opacity="1"
             id="g59">
            <g
               opacity="1"
               transform="matrix(1,0,0,1,479.256,79.082)"
               id="g57"
               style="fill:#659975;fill-opacity:1">
              <path
                 style="display:block;fill:#659975;fill-opacity:1"
                 fill="rgb(254,254,255)"
                 fill-opacity="1"
                 d="M0 0 M16.349,40.998 C15.889,40.998 15.513,40.623 15.513,40.162 C15.513,40.162 15.513,-8.048 15.513,-8.048 C15.513,-17.599 10.277,-22.647 0.366,-22.647 C-4.82,-22.647 -10.350999999999999,-21.791999999999998 -15.209,-20.237 C-15.498,-20.148 -15.694,-19.879 -15.694,-19.57 C-15.694,-19.57 -15.694,40.162 -15.694,40.162 C-15.694,40.623 -16.07,40.998 -16.531,40.998 C-16.531,40.998 -35.407,40.998 -35.407,40.998 C-35.867999999999995,40.998 -36.245,40.623 -36.245,40.162 C-36.245,40.162 -36.245,-33.49 -36.245,-33.49 C-36.245,-33.844 -36.026,-34.163000000000004 -35.703,-34.283 C-24.389000000000003,-38.425000000000004 -9.937,-40.998 2.013,-40.998 C25.366999999999997,-40.998 36.245,-30.993 36.245,-9.511 C36.245,-9.511 36.245,40.162 36.245,40.162 C36.245,40.623 35.869,40.998 35.408,40.998 C35.408,40.998 16.349,40.998 16.349,40.998z"
                 id="path55" />
            </g>
          </g>
          <g
             style="user-select:none;display:block;fill:#659975;fill-opacity:1"
             transform="matrix(1.31,0,0,1.31,57.022,49.27)"
             opacity="1"
             id="g65">
            <g
               opacity="1"
               transform="matrix(1,0,0,1,418.625,60.977)"
               id="g63"
               style="fill:#659975;fill-opacity:1">
              <path
                 style="display:block;fill:#659975;fill-opacity:1"
                 fill="rgb(254,254,255)"
                 fill-opacity="1"
                 d="M0 0 M-9.438,59.104 C-9.899000000000001,59.104 -10.274,58.728 -10.274,58.267 C-10.274,58.267 -10.274,-20.229 -10.274,-20.229 C-10.274,-20.689 -9.899000000000001,-21.063 -9.438,-21.063 C-9.438,-21.063 9.438,-21.063 9.438,-21.063 C9.9,-21.063 10.276,-20.689 10.276,-20.229 C10.276,-20.229 10.276,58.267 10.276,58.267 C10.276,58.728 9.9,59.104 9.438,59.104 C9.438,59.104 -9.438,59.104 -9.438,59.104z"
                 id="path61" />
            </g>
          </g>
          <g
             style="user-select:none;display:block;fill:#659975;fill-opacity:1"
             transform="matrix(1.31,0,0,1.31,57.0212,49.2706)"
             opacity="1"
             id="g71">
            <g
               opacity="1"
               transform="matrix(1,0,0,1,418.625,60.977)"
               id="g69"
               style="fill:#659975;fill-opacity:1">
              <path
                 style="display:block;fill:#659975;fill-opacity:1"
                 fill="rgb(254,254,255)"
                 fill-opacity="1"
                 d="M0 0 M-0.001,-34.169 C-6.876,-34.169 -12.469,-39.68000000000001 -12.469,-46.453 C-12.469,-53.547000000000004 -6.993,-59.104 -0.001,-59.104 C6.875,-59.104 12.469,-53.429 12.469,-46.453 C12.469,-39.794000000000004 6.758,-34.169 -0.001,-34.169z"
                 id="path67" />
            </g>
          </g>
          <g
             style="user-select:none;display:block;fill:#659975;fill-opacity:1"
             clip-path="url(#iZf4ItUAP6)"
             transform="matrix(1.31,0,0,1.31,57.022,49.27)"
             opacity="1"
             id="g77">
            <g
               opacity="1"
               transform="matrix(1,0,0,1,358.077,95.542)"
               id="g75"
               style="fill:#659975;fill-opacity:1">
              <path
                 style="display:block;fill:#659975;fill-opacity:1"
                 fill="rgb(254,254,255)"
                 fill-opacity="1"
                 d="M0 0 M-38.701,57.458 C-39.162,57.458 -39.537,57.082 -39.537,56.621 C-39.537,56.621 -39.537,-50.35 -39.537,-50.35 C-39.537,-50.701 -39.335,-51.006 -39.025,-51.129 C-29.049999999999997,-55.092 -16.171,-57.458 -4.572,-57.458 C22.635,-57.458 39.537,-42.028 39.537,-17.192 C39.537,10.492 23.259,26.369 -5.121,26.369 C-10.005,26.369 -14.896,25.75 -17.884,24.756 C-17.914,24.745 -18.026,24.738 -18.058,24.738 C-18.264,24.738 -18.416999999999998,24.778000000000002 -18.526,24.861 C-18.695,24.98 -18.802,25.191 -18.802,25.419 C-18.802,25.419 -18.802,56.621 -18.802,56.621 C-18.802,57.082 -19.178,57.458 -19.639,57.458 C-19.639,57.458 -38.701,57.458 -38.701,57.458zM0 0 M-4.937,-39.108 C-10.195,-39.108 -15.088000000000001,-38.356 -18.364,-37.045 C-18.630000000000003,-36.940000000000005 -18.802,-36.684000000000005 -18.802,-36.395 C-18.802,-36.395 -18.802,6.216 -18.802,6.216 C-18.802,6.511 -18.624000000000002,6.769 -18.35,6.872 C-15.488000000000001,7.946 -11.266,8.561 -6.767,8.561 C9.368000000000002,8.561 18.622,-0.5599999999999987 18.622,-16.461 C18.622,-30.43 9.594000000000001,-39.108 -4.937,-39.108z"
                 id="path73" />
            </g>
          </g>
          <g
             style="user-select:none;display:block;fill:#659975;fill-opacity:1"
             transform="matrix(1.31,0,0,1.31,57.022,49.27)"
             opacity="1"
             id="g83">
            <g
               opacity="1"
               transform="matrix(1,0,0,1,245.873,79.082)"
               id="g81"
               style="fill:#659975;fill-opacity:1">
              <path
                 style="display:block;fill:#659975;fill-opacity:1"
                 fill="rgb(254,254,255)"
                 fill-opacity="1"
                 d="M0 0 M38.66,40.999 C38.199999999999996,40.999 37.826,40.623 37.826,40.162 C37.826,40.162 37.826,-9.358 37.826,-9.358 C37.826,-16.887 31.823999999999998,-23.012 24.447,-23.012 C24.447,-23.012 24.334,-23.011 24.334,-23.011 C18.708,-22.963 12.838000000000001,-21.743000000000002 9.013,-19.829 C8.688,-19.669 8.540000000000001,-19.279 8.678,-18.941 C9.420000000000002,-17.081 10.273,-14.473 10.273,-10.791 C10.273,-10.791 10.273,40.162 10.273,40.162 C10.273,40.623 9.899000000000001,40.999 9.438,40.999 C9.438,40.999 -9.623,40.999 -9.623,40.999 C-10.083,40.999 -10.457,40.623 -10.457,40.162 C-10.457,40.162 -10.457,-9.328 -10.457,-9.328 C-10.457,-18.537 -14.753000000000002,-23.013 -23.591,-23.013 C-28.506,-23.013 -32.537,-22.422 -37.504,-20.974 C-37.806999999999995,-20.883 -38.009,-20.613 -38.009,-20.301 C-38.009,-20.301 -38.009,40.162 -38.009,40.162 C-38.009,40.623 -38.383,40.999 -38.844,40.999 C-38.844,40.999 -57.72,40.999 -57.72,40.999 C-58.18,40.999 -58.554,40.623 -58.554,40.162 C-58.554,40.162 -58.554,-33.497 -58.554,-33.497 C-58.554,-33.85 -58.337,-34.168 -58.015,-34.289 C-46.642,-38.553000000000004 -33.696,-40.999 -22.496,-40.999 C-13.348999999999998,-40.999 -5.311,-38.721999999999994 -0.442,-34.754 C-0.339,-34.668 -0.14,-34.597 -0.001,-34.597 C0.041,-34.597 0.08299999999999999,-34.605999999999995 0.122,-34.623 C7.563,-37.934 16.045,-40.999 27.614,-40.999 C49.012,-40.999 58.554,-31.514000000000003 58.554,-10.243 C58.554,-10.243 58.554,40.162 58.554,40.162 C58.554,40.623 58.18,40.999 57.719,40.999 C57.719,40.999 38.66,40.999 38.66,40.999z"
                 id="path79" />
            </g>
          </g>
          <g
             style="user-select:none;display:block;fill:#659975;fill-opacity:1"
             clip-path="url(#yJszFUqnsC)"
             transform="matrix(1.31,0,0,1.31,57.022,49.27)"
             opacity="1"
             id="g89">
            <g
               opacity="1"
               transform="matrix(1,0,0,1,140.715,79.894)"
               id="g87"
               style="fill:#659975;fill-opacity:1">
              <path
                 style="display:block;fill:#659975;fill-opacity:1"
                 fill="rgb(254,254,255)"
                 fill-opacity="1"
                 d="M0 0 M2.494,41.816 C-20.965,41.815000000000005 -32.901,33.684 -32.984,17.643 C-33.025,9.728000000000002 -30.012999999999998,3.6189999999999998 -24.031,-0.514 C-17.988999999999997,-4.687 -8.972,-6.834 2.769,-6.895 C2.769,-6.895 11.728,-6.94 11.728,-6.94 C11.886,-6.94 12.107000000000001,-7.032 12.22,-7.146 C12.354000000000001,-7.285 12.425,-7.459 12.425,-7.641 C12.425,-7.641 12.399,-12.584 12.399,-12.584 C12.360999999999999,-19.958 6.666,-24.359 -2.836,-24.359 C-2.836,-24.359 -2.992,-24.359 -2.992,-24.359 C-9.368,-24.326 -15.276,-23.047 -21.053,-20.447 C-21.157,-20.401 -21.266,-20.377 -21.377,-20.377 C-21.761,-20.377 -22.109,-20.654 -22.202,-21.034 C-22.202,-21.034 -25.596,-34.837 -25.596,-34.837 C-25.692,-35.223000000000006 -25.524,-35.618 -25.189,-35.799 C-18.09,-39.629 -8.876,-41.765 0.756,-41.815 C0.756,-41.815 1.124,-41.816 1.124,-41.816 C22.017,-41.816 32.66,-32.324 32.757,-13.603 C32.757,-13.603 33.023,37.837 33.023,37.837 C33.025000000000006,38.23500000000001 32.765,38.571000000000005 32.388,38.654 C24.058999999999997,40.498000000000005 12.257,41.768 3.02,41.816 C3.02,41.816 2.493,41.816 2.493,41.816 C2.493,41.816 2.494,41.816 2.494,41.816zM0 0 M12.497,5.741 C12.497,5.741 4.478,5.778 4.478,5.778 C-6.7829999999999995,5.837 -12.476,9.424999999999999 -12.442,16.444 C-12.406,23.43 -7.215,27.122 2.57,27.122 C2.57,27.122 2.761,27.12 2.761,27.12 C4.44,27.111 8.705,26.999 12.07,26.139 C12.378,26.063 12.596,25.784000000000002 12.596,25.46 C12.596,25.46 12.497,5.741 12.497,5.741z"
                 id="path85" />
            </g>
          </g>
          <g
             style="user-select:none;display:block;fill:#659975;fill-opacity:1"
             clip-path="url(#gUSfMqoO73)"
             transform="matrix(1.31,0,0,1.31,57.022,49.27)"
             opacity="1"
             id="g95">
            <g
               opacity="1"
               transform="matrix(1,0,0,1,140.715,79.894)"
               id="g93"
               style="fill:#659975;fill-opacity:1">
              <path
                 style="display:block;fill:#659975;fill-opacity:1"
                 fill="rgb(254,254,255)"
                 fill-opacity="1"
                 d="M0 0 M2.494,41.816 C-20.965,41.815000000000005 -32.901,33.684 -32.984,17.643 C-33.025,9.728000000000002 -30.012999999999998,3.6189999999999998 -24.031,-0.514 C-17.988999999999997,-4.687 -8.972,-6.834 2.769,-6.895 C2.769,-6.895 11.728,-6.94 11.728,-6.94 C11.886,-6.94 12.107000000000001,-7.032 12.22,-7.146 C12.354000000000001,-7.285 12.425,-7.459 12.425,-7.641 C12.425,-7.641 12.399,-12.584 12.399,-12.584 C12.360999999999999,-19.958 6.666,-24.359 -2.836,-24.359 C-2.836,-24.359 -2.992,-24.359 -2.992,-24.359 C-9.368,-24.326 -15.276,-23.047 -21.053,-20.447 C-21.157,-20.401 -21.266,-20.377 -21.377,-20.377 C-21.761,-20.377 -22.109,-20.654 -22.202,-21.034 C-22.202,-21.034 -25.596,-34.837 -25.596,-34.837 C-25.692,-35.223000000000006 -25.524,-35.618 -25.189,-35.799 C-18.09,-39.629 -8.876,-41.765 0.756,-41.815 C0.756,-41.815 1.124,-41.816 1.124,-41.816 C22.017,-41.816 32.66,-32.324 32.757,-13.603 C32.757,-13.603 33.023,37.837 33.023,37.837 C33.025000000000006,38.23500000000001 32.765,38.571000000000005 32.388,38.654 C24.058999999999997,40.498000000000005 12.257,41.768 3.02,41.816 C3.02,41.816 2.493,41.816 2.493,41.816 C2.493,41.816 2.494,41.816 2.494,41.816zM0 0 M12.497,5.741 C12.497,5.741 4.478,5.778 4.478,5.778 C-6.7829999999999995,5.837 -12.476,9.424999999999999 -12.442,16.444 C-12.406,23.43 -7.215,27.122 2.57,27.122 C2.57,27.122 2.761,27.12 2.761,27.12 C4.44,27.111 8.705,26.999 12.07,26.139 C12.378,26.063 12.596,25.784000000000002 12.596,25.46 C12.596,25.46 12.497,5.741 12.497,5.741z"
                 id="path91" />
            </g>
          </g>
        </g>
      </g>
      <g
         clip-path="url(#cp_gCsCGusH)"
         style="display:block;fill:#659975;fill-opacity:1"
         transform="matrix(1,0,0,1,0,0)"
         opacity="1"
         id="g119">
        <g
           style="user-select:none;display:block;fill:#659975;fill-opacity:1"
           clip-path="url(#pLekAVHA3x)"
           transform="matrix(1.31,0,0,1.31,57.022,49.27)"
           opacity="1"
           id="g105">
          <g
             opacity="1"
             transform="matrix(1,0,0,1,0,0)"
             id="g103"
             style="fill:#659975;fill-opacity:1">
            <path
               style="display:block;fill:#659975;fill-opacity:1"
               fill="rgb(255,255,255)"
               fill-opacity="1"
               d="M0 0 M76.872,59.261 C70.729,59.261 67.514,54.398999999999994 67.514,49.596 C67.514,45.041999999999994 72.341,33.969 76.574,28.81 C76.574,28.81 76.855,28.431 76.855,28.431 C76.855,28.431 77.17,28.81 77.17,28.81 C81.404,33.974 86.231,45.046 86.231,49.596 C86.231,54.398999999999994 83.016,59.261 76.872,59.261zM0 0 M77.799,7.33 C70.611,4.0009999999999994 63.233999999999995,2.313 55.87,2.313 C41.812999999999995,2.313 28.200000000000003,8.485 17.538,19.692 C5.7940000000000005,32.032 -0.7370000000000001,48.980999999999995 0.066,65.029 C0.442,72.756 2.253,80.122 5.447,86.92 C15.265,107.801 37.626000000000005,121.89399999999999 61.087,121.99 C61.087,121.99 61.332,121.99 61.332,121.99 C75.917,121.99 88.94200000000001,116.9 96.268,112.137 C96.77,111.812 97.016,111.211 96.881,110.645 C96.881,110.645 92.681,93.191 92.681,93.191 C92.532,92.583 91.992,92.158 91.366,92.158 C91.05,92.158 90.745,92.269 90.489,92.473 C90.489,92.473 89.842,93.019 89.842,93.019 C86.593,95.765 78.985,102.195 61.906,102.452 C61.906,102.452 61.323,102.456 61.323,102.456 C45.605000000000004,102.456 29.493000000000002,92.451 23.012,78.666 C17.454,66.85 18.466,51.869 25.655,39.57 C32.53,27.823 43.778999999999996,21.086 56.518,21.086 C57.501,21.086 58.494,21.124 59.469,21.2 C59.724000000000004,21.217 59.949999999999996,21.371000000000002 60.056,21.603 C60.162,21.832 60.137,22.101 59.988,22.308 C52.62,32.452 49.216,44.2 50.883,53.734 C52.401,62.358000000000004 57.604,69.521 65.157,73.385 C68.681,75.185 72.47500000000001,76.147 76.429,76.245 C76.429,76.245 77.074,76.252 77.074,76.252 C81.2,76.252 85.41,75.266 89.247,73.402 C95.727,70.262 100.33699999999999,65.182 102.579,58.713 C105.29899999999999,50.848 104.31700000000001,41.115 99.884,32.009 C98.298,28.745 96.505,25.68 94.557,22.897 C94.498,22.813 91.81299999999999,18.502000000000002 88.091,15.047 C83.553,10.835 77.82100000000001,7.34 77.799,7.33z"
               id="path101" />
          </g>
        </g>
        <g
           style="user-select:none;display:block;fill:#659975;fill-opacity:1"
           clip-path="url(#HbH49lCwHK)"
           transform="matrix(1.31,0,0,1.31,57.022,49.27)"
           opacity="1"
           id="g111">
          <g
             opacity="1"
             transform="matrix(1,0,0,1,54.134,61.388)"
             id="g109"
             style="fill:#659975;fill-opacity:1">
            <path
               style="display:block;fill:#659975;fill-opacity:1"
               fill="rgb(255,255,255)"
               fill-opacity="1"
               d="M0 0 M54.091,-43.112 C54.091,-43.112 50.022,-60.038 50.022,-60.038 C49.940999999999995,-60.373999999999995 49.620000000000005,-60.599999999999994 49.249,-60.602 C42.631,-60.083999999999996 30.393,-57.176 23.92,-54.06 C23.898000000000003,-54.050000000000004 17.679,-50.859 12.934,-46.932 C8.721,-43.446000000000005 5.923,-39.177 5.853,-39.08 C3.7239999999999998,-36.149 1.001,-31.537 -0.789,-26.735 C-1.867,-23.843 14.406,-16.915000000000003 15.99,-21.385 C16.984,-24.19 21.739,-31.184999999999995 23.442,-32.535 C29.258,-37.145999999999994 41.012,-39.806 41.207,-39.857 C44.208,-40.611 51.263000000000005,-41.868 53.496,-42.229 C53.694,-42.258 53.874,-42.375 53.987,-42.543 C54.098,-42.716 54.134,-42.92 54.091,-43.112z"
               id="path107" />
          </g>
        </g>
        <g
           style="user-select:none;display:none;fill:#659975;fill-opacity:1"
           clip-path="url(#NjgJrzxI7b)"
           transform="matrix(-1.31,0,0,1.31,276.522,46.27)"
           opacity="1"
           id="g117">
          <g
             opacity="1"
             transform="matrix(1,0,0,1,54.134,61.388)"
             id="g115"
             style="fill:#659975;fill-opacity:1">
            <path
               style="display:none;fill:#659975;fill-opacity:1"
               fill="rgb(255,255,255)"
               fill-opacity="1"
               d="M0 0 M12.136,-58.046 C-9.366,-60.566 -25.933999999999997,-51.758 -36.596,-40.551 C-48.339999999999996,-28.211000000000002 -54.870999999999995,-10.354999999999999 -54.068,5.693 C-53.692,13.42 -51.882000000000005,20.784999999999997 -48.688,27.583 C-39.03,48.123999999999995 -17.234,62.097 5.807,62.638 C6.183000000000001,62.647 19.532999999999998,62.967 48.647,59.997 C49.074,59.953 49.985,59.685 49.957,58.338 C49.957,58.338 50.19,41.81 50.19,41.81 C50.128,40.124 49.315,40.435 48.745,40.508 C25.839,43.444 6.513,43.115 6.188,43.106 C-9.208000000000002,42.693000000000005 -24.778,32.821 -31.122,19.329 C-36.68,7.513 -35.668,-8.373999999999999 -28.479,-20.673 C-21.605,-32.42 -11.275000000000002,-40.289 6.677,-39.703 C7.659,-39.67100000000001 14.625,-57.754 12.136,-58.046z"
               id="path113" />
          </g>
        </g>
      </g>
    </g>
  </g>
</svg>
